<?xml version="1.0" encoding="UTF-8"?>
<svg width="96px" height="58px" viewBox="0 0 96 58" version="1.1" xmlns="http://www.w3.org/2000/svg" xmlns:xlink="http://www.w3.org/1999/xlink">
    <!-- Generator: Sketch 52.3 (67297) - http://www.bohemiancoding.com/sketch -->
    <title>logo-light</title>
    <desc>Created with Sketch.</desc>
    <g id="Designs" stroke="none" stroke-width="1" fill="none" fill-rule="evenodd">
        <g id="Desktop-Home" transform="translate(-140.000000, -45.000000)" fill="#FFFFFF" fill-rule="nonzero">
            <g id="Header" transform="translate(0.000000, -100.000000)">
                <g id="navigation" transform="translate(140.000000, 145.000000)">
                    <g id="logo-light">
                        <polygon id="Fill-26" points="86.16 25.2857143 86.64 30.222449 81.6 33.2326531 69.36 33.2326531 69.36 25.2857143"></polygon>
                        <polygon id="Fill-27" points="40.56 25.2857143 40.56 33.2326531 48.84 33.2326531 51.36 29.2591837 48.84 25.2857143"></polygon>
                        <polygon id="Fill-28" points="64.2 0 64.2 5.17755102 64.2 16.0142857 68.04 11.9204082 70.32 5.17755102 70.32 0"></polygon>
                        <polygon id="Fill-29" points="50.04 5.17755102 50.04 21.1918367 56.16 21.1918367 56.16 5.17755102 53.16 3.37142857"></polygon>
                        <polygon id="Fill-30" points="24.96 0 24.96 5.17755102 30.36 5.17755102 30.36 16.1346939 33.96 11.6795918 36.48 5.17755102 36.48 5.17755102 36.48 5.17755102 38.16 2.52857143 36.48 0"></polygon>
                        <polygon id="Fill-31" points="16.08 0 16.08 21.1918367 19.68 17.4591837 22.2 10.2346939 22.2 0"></polygon>
                        <polygon id="Fill-32" points="30.36 16.1346939 30.36 21.1918367 36.48 21.1918367 36.48 5.17755102 36.48 5.17755102"></polygon>
                        <polygon id="Fill-33" points="36.48 5.17755102 41.88 5.17755102 41.88 0 36.48 0"></polygon>
                        <polygon id="Fill-34" points="22.2 21.1918367 22.2 10.2346939 16.08 21.1918367"></polygon>
                        <polygon id="Fill-35" points="28.32 42.022449 28.32 57.9163265 37.8 57.9163265 37.8 25.2857143 30.36 30.222449"></polygon>
                        <polygon id="Fill-36" points="6.12 0 0 0 0 21.1918367 6.12 21.1918367 7.56 18.5428571 6.12 16.0142857"></polygon>
                        <polygon id="Fill-37" points="6.12 21.1918367 13.32 21.1918367 13.32 16.0142857 6.12 16.0142857"></polygon>
                        <polygon id="Fill-38" points="64.2 16.0142857 67.32 17.5795918 70.32 16.0142857 70.32 5.17755102"></polygon>
                        <polygon id="Fill-39" points="64.2 21.1918367 77.52 21.1918367 77.52 16.0142857 64.2 16.0142857"></polygon>
                        <polygon id="Fill-40" points="52.92 0 53.16 2.52857143 50.04 5.17755102 44.64 5.17755102 44.64 0"></polygon>
                        <polygon id="Fill-41" points="61.56 0 61.56 5.17755102 50.04 5.17755102 52.92 0"></polygon>
                        <polygon id="Fill-42" points="86.52 16.0142857 86.52 12.8836735 93.36 12.8836735 93.36 8.06734694 86.52 8.06734694 86.52 5.17755102 82.08 8.66938776 80.4 16.255102 80.4 21.1918367 94.92 21.1918367 94.92 16.0142857"></polygon>
                        <polygon id="Fill-43" points="86.52 0 87.96 2.52857143 86.52 5.17755102 83.4 6.50204082 80.4 5.17755102 80.4 0"></polygon>
                        <polygon id="Fill-44" points="86.52 5.17755102 80.4 16.255102 80.4 5.17755102"></polygon>
                        <path d="M15.84,47.5612245 C15.72,48.7653061 15.24,49.3673469 14.4,49.8489796 C14.4,49.8489796 14.4,49.8489796 14.4,49.8489796 C14.4,49.8489796 14.28,49.8489796 14.28,49.9693878 C14.28,49.9693878 14.28,49.9693878 14.28,49.9693878 C14.28,49.9693878 14.16,49.9693878 14.16,49.9693878 C14.16,49.9693878 14.16,49.9693878 14.16,49.9693878 C14.16,49.9693878 14.04,49.9693878 14.04,49.9693878 C14.04,49.9693878 14.04,49.9693878 14.04,49.9693878 C14.04,49.9693878 13.92,49.9693878 13.92,49.9693878 C13.92,49.9693878 13.92,49.9693878 13.92,49.9693878 C13.92,49.9693878 13.8,49.9693878 13.8,49.9693878 C13.8,49.9693878 13.8,49.9693878 13.8,49.9693878 C13.8,49.9693878 13.68,49.9693878 13.68,49.9693878 C13.68,49.9693878 13.68,49.9693878 13.56,49.9693878 C13.56,49.9693878 13.56,49.9693878 13.44,49.9693878 C13.44,49.9693878 13.44,49.9693878 13.32,49.9693878 C13.32,49.9693878 13.32,49.9693878 13.32,49.9693878 C13.32,49.9693878 13.2,49.9693878 13.2,49.9693878 C13.2,49.9693878 13.2,49.9693878 13.2,49.9693878 C12.84,49.9693878 12.6,50.0897959 12.24,50.0897959 L9,50.0897959 L9,44.0693878 L12.24,44.0693878 C14.04,44.0693878 15.84,44.7918367 15.84,47.0795918 L15.84,47.5612245 Z M25.56,47.5612245 C25.32,43.9489796 22.68,41.4204082 20.16,40.6979592 C22.32,39.855102 24.36,37.9285714 24.36,34.5571429 C24.36,27.9346939 18.36,25.1653061 11.04,25.1653061 L9,25.1653061 L7.08,28.5367347 L9,32.6306122 L11.64,32.6306122 C13.44,32.6306122 15,33.3530612 15,35.4 C15,37.4469388 13.44,38.1693878 11.64,38.1693878 L9,38.1693878 L9,32.6306122 L2.4,38.1693878 L0,48.8857143 L0,32.7510204 L0,25.2857143 L0,50.3306122 L0,57.7959184 L11.76,57.7959184 C12.12,57.7959184 12.48,57.7959184 12.72,57.7959184 C12.84,57.7959184 12.96,57.7959184 13.08,57.7959184 C20.4,57.4346939 25.44,54.544898 25.44,48.0428571 C25.56,47.922449 25.56,47.6816327 25.56,47.5612245 Z" id="Fill-45"></path>
                        <polygon id="Fill-46" points="9 32.7510204 0 48.8857143 0 32.7510204 4.44 30.8244898"></polygon>
                        <polygon id="Fill-47" points="9 32.7510204 0 32.7510204 0 25.2857143 9 25.2857143"></polygon>
                        <polygon id="Fill-48" points="28.32 25.2857143 28.32 42.022449 37.8 25.2857143"></polygon>
                        <polygon id="Fill-49" points="48.84 25.2857143 48.84 50.0897959 54.48 46.3571429 58.2 33.2326531 66.48 33.2326531 66.48 25.2857143"></polygon>
                        <polygon id="Fill-50" points="48.84 50.0897959 48.84 57.7959184 58.2 57.7959184 58.2 33.2326531"></polygon>
                        <polygon id="Fill-51" points="86.16 25.2857143 81.6 33.2326531 67.68 57.7959184 77.52 57.7959184 81.48 55.1469388 81.96 49.8489796 95.88 25.2857143"></polygon>
                        <polygon id="Fill-52" points="77.52 57.7959184 86.52 57.7959184 86.88 53.822449 81.96 49.8489796 79.8 53.822449"></polygon>
                        <polygon id="Fill-53" points="86.52 57.7959184 94.92 57.7959184 94.92 49.8489796 81.96 49.8489796"></polygon>
                        <polygon id="Fill-54" points="94.44 0 94.44 5.17755102 86.52 5.17755102 86.52 2.52857143 86.52 0"></polygon>
                    </g>
                </g>
            </g>
        </g>
    </g>
</svg>