<?xml version="1.0" encoding="utf-8"?>
<!-- Generator: Adobe Illustrator 22.0.0, SVG Export Plug-In . SVG Version: 6.00 Build 0)  -->
<svg version="1.1" id="Layer_1" xmlns="http://www.w3.org/2000/svg" xmlns:xlink="http://www.w3.org/1999/xlink" x="0px" y="0px"
	 viewBox="0 0 751.4 179.2" style="enable-background:new 0 0 751.4 179.2;" xml:space="preserve">
<style type="text/css">
	.st0{fill:#FFFFFF;}
</style>
<title>Asset 2</title>
<g>
	<path class="st0" d="M23.8,12.4c5.8-1.2,9.5-1.7,11.2-1.7c1.3,0,5.2,0.5,11.5,1.4c11.5,1.7,18.1,5.2,19.6,10.4
		c0.2,0.4,0.3,1.2,0.3,2.3c0,4.4-1.3,10.3-4,17.6c-0.6,1.2-1.3,4.5-2.2,10c-0.9,5.5-1.7,8.8-2.5,10c-1.7,3.7-5.6,15.9-11.5,36.6
		c-6,20.8-9,32.5-9.2,35.2c0,1.2,0.4,1.9,1.2,2.2c0.8,0.3,2.5,0.4,5.2,0.4c4.2,0,8,1.3,11.2,4c3.3,2.7,4.9,5.6,4.9,8.7
		c0,2.3-1.2,4.1-3.5,5.5c-2.1,1.2-6.7,2.1-13.8,2.9c-2.3,0.2-8.4,1-18.2,2.3c-1.2,0.2-2.7,0.3-4.6,0.3c-2.5,0-5.3-1.2-8.4-3.5
		c-3.5-2.5-5.2-4.6-5.2-6.3c0-2.9,2.4-10.2,7.2-21.9c2.7-6.2,6-16.3,9.8-30.6c1.2-4.2,2.6-9.4,4.5-15.6c1.8-6.2,3.6-12.8,5.3-19.9
		c3.3-12.9,5.4-21,6.3-24.2c1-2.9,1.4-4.8,1.4-5.8c0-1.7-1.1-2.6-3.2-2.6c-0.4,0-1.9,0.2-4.6,0.6c-0.8,0.2-2,0.3-3.7,0.3
		c-6.5,0-11.5-1.9-15-5.8c-1.3-1.3-2-2.4-2-3.2c0-0.8,0.5-2,1.4-3.8C14.7,15.7,18.2,13.7,23.8,12.4z"/>
	<path class="st0" d="M108.3,22.2c2.3-0.6,5.4-0.9,9.2-0.9c10.6,0,17.2,1.2,19.9,3.5c1.9,1.7,2.9,3.8,2.9,6.3c0,2.5-1,4.6-2.9,6.3
		c-1.9,1.7-4.4,2.6-7.5,2.6c-2.9,0-4.8,0.7-5.8,2.2c-1,1.4-1.4,4.8-1.4,10c0,1.5,0.2,6.3,0.6,14.4c0.4,9.4,0.8,15.5,1.3,18.3
		c0.5,2.8,1.2,4.3,2.2,4.5c0.2,0,1.4,0,3.8,0.1c2.3,0.1,4.2,0.1,5.8,0.1c4.6,0.2,8,1.3,10.1,3.5c1.3,1.3,2,2.7,2,4
		c0,2.9-4.1,5.9-12.4,8.9c-4.8,1.7-7.7,3-8.7,3.9c-1,0.9-1.6,2.9-2,6.2c-0.4,3.1-0.6,5.8-0.6,8.1c0,9.6,0.9,16.8,2.6,21.6
		c0.8,1.9,1.6,3.1,2.6,3.6c1,0.5,3,0.7,6.1,0.7c4,0,7.5,0.9,10.4,2.7c2.9,1.8,4.3,4,4.3,6.5c0,1.7-1.4,4-4.3,6.9
		c-4.6,4.4-12.3,6.6-23.1,6.6c-11.2,0-18.5-2.4-21.9-7.2c-1.9-2.5-3.1-18.9-3.5-49.3c-0.4-37.9-0.8-60.2-1.2-66.9l-0.9-21.3l4-2.3
		C103,24,105.8,22.8,108.3,22.2z"/>
	<path class="st0" d="M167.3,5.8c2.7-2.3,7.1-3.5,13.3-3.5H207c10.4,0.4,16.6,0.9,18.7,1.4c1.2,0.4,20-0.6,24.2-0.3
		c4.2,0.3,7.4,1.2,9.4,2.6c2,1.4,3,3.9,3,7.4c-0.2,3.7-1,6.3-2.3,7.8c-1.3,1.5-3.8,2.6-7.2,3.2c-4,0.8-22.5,2.7-23.1,3.3
		c-1,1-1.4,19.3-1.4,55.1c0,24.6,0.3,42.1,0.9,52.5c0.4,8.1,0.6,12.4,0.6,13c0,4-0.9,7.5-2.6,10.4c-2.1,3.8-5.4,5.8-9.8,5.8
		c-2.9,0-5.9-0.9-8.9-2.6l-5.5-3.2l0.9-65.8c0.4-16.9,0.6-33.8,0.6-50.8c0-10.2-0.8-15.8-2.3-16.7c-2.3-1.2-3.8-1.6-4.3-1.4
		c-0.8,0.2-21.6,0.3-22.9,0.3c-3.5,0-6.3-1-8.7-3c-2.3-2-3.5-4.4-3.5-7.1C162.7,11,164.2,8.3,167.3,5.8z"/>
	<path class="st0" d="M295.9,3.8c1.3-0.6,3.2-0.3,7,0.4c0.8,0.1,3.5,0.9,7.7,2.1c3.8,1.2,6.4,2.5,7.8,3.9c1.3,1.4,2,4,2,7.6
		c0,2.7-0.3,6.2-0.9,10.4c-0.4,2.5-0.6,8.3-0.6,17.3c0,22.5,1.2,47.7,3.8,75.6c0.6,5.2,0.9,9.7,0.9,13.6c0,11.2-2.5,18.4-7.5,21.6
		c-2.9,1.9-5.8,2.9-8.7,2.9c-2.3,0-27.9-8.1-33.8-10.2c-5.9-2-10-3.8-12.3-5.3c-2.1-1.3-3.2-3.1-3.2-5.2c0-1.9,0.9-3.6,2.7-5
		c1.8-1.4,4.2-2.2,7.1-2.2c1.2,0,2,0.1,2.6,0.3c2.3,0.4,25.3,7.6,26,7.3c0.7-0.3,1.2-1.3,1.6-3c0.2-0.6,0.3-1.7,0.3-3.5
		c0-1.9-0.2-4.6-0.6-8.1c-0.6-4.6-1.2-19.7-1.7-45.3c-0.6-25.6-1-39.7-1.2-42.4c-0.1-1.7-0.2-6.1-1.3-11.7c-0.5-2.7-1.1-5-1.5-6.4
		C291.3,11.3,292.5,5.2,295.9,3.8z"/>
	<path class="st0" d="M364.4,22.2c2.3-0.6,5.4-0.9,9.2-0.9c10.6,0,17.2,1.2,19.9,3.5c1.9,1.7,2.9,3.8,2.9,6.3c0,2.5-1,4.6-2.9,6.3
		c-1.9,1.7-4.4,2.6-7.5,2.6c-2.9,0-4.8,0.7-5.8,2.2c-1,1.4-1.4,4.8-1.4,10c0,1.5,0.2,6.3,0.6,14.4c0.4,9.4,0.8,15.5,1.3,18.3
		c0.5,2.8,1.2,4.3,2.2,4.5c0.2,0,1.4,0,3.8,0.1c2.3,0.1,4.2,0.1,5.8,0.1c4.6,0.2,8,1.3,10.1,3.5c1.3,1.3,2,2.7,2,4
		c0,2.9-4.1,5.9-12.4,8.9c-4.8,1.7-7.7,3-8.7,3.9c-1,0.9-1.6,2.9-2,6.2c-0.4,3.1-0.6,5.8-0.6,8.1c0,9.6,0.9,16.8,2.6,21.6
		c0.8,1.9,1.6,3.1,2.6,3.6c1,0.5,3,0.7,6.1,0.7c4,0,7.5,0.9,10.4,2.7c2.9,1.8,4.3,4,4.3,6.5c0,1.7-1.4,4-4.3,6.9
		c-4.6,4.4-12.3,6.6-23.1,6.6c-11.2,0-18.5-2.4-21.9-7.2c-1.9-2.5-3.1-18.9-3.5-49.3c-0.4-37.9-0.8-60.2-1.2-66.9L352,28.2l4-2.3
		C359.2,24,361.9,22.8,364.4,22.2z"/>
	<path class="st0" d="M440,136.4c2.1-2.1,4.1-3.2,6.1-3.2c0.6,0,2,0.2,4.3,0.6c7.7,1.5,11.5,4.5,11.5,8.9c0,3.5-2.4,6.6-7.2,9.5
		c-4,2.5-7.2,3.8-9.5,3.8c-4,0-6.6-3.3-7.8-9.8c-0.2-1.2-0.3-2.5-0.3-4C437.1,140.3,438.1,138.3,440,136.4z"/>
	<path class="st0" d="M500.3,13.5c2.2-2,7.7-6.5,16.1-7.8c12.4-1.9,21.6,4.7,23.4,6c1.9,1.9,3.8,3.8,5.8,5.8
		c3.7,3.7,6.2,8.3,7.8,13.8c1.5,5.6,2.8,14.2,3.8,26c0.4,4.4,0.6,10.9,0.6,19.3c0,19.6-1.8,37.5-5.5,53.5
		c-3.7,16.1-8.5,27-14.4,32.7c-1.9,1.9-4.7,3.6-8.4,4.9c-3.7,1.3-6.8,2-9.5,2c-1.2,0-2.1-0.2-2.9-0.6c-1.5-1-3.6-1.4-6.1-1.4
		c-1.9,0-4.1-1.6-6.6-4.8c-2.5-3.2-4.5-7-6.1-11.4c-2.7-7.5-4.5-15.7-5.3-24.7s-1.4-23.3-1.6-43.1V70.4c0-18.1,0.4-30.2,1.3-36.5
		C493.5,27.6,497,17.6,500.3,13.5z M526,32.3c-1.7-3.7-3.2-5.5-4.3-5.5c-1.3,0-3,3-4.9,8.9c-1.5,4.6-2.3,13.5-2.3,26.5
		c0,10.4,0.4,21.3,1.2,32.9c0.8,11,2,21.3,3.8,31c1.7,9.7,3.3,14.6,4.6,14.6c1,0,1.8-2.1,2.6-6.3c1-3.5,2-6.3,3.2-8.7
		c0.6-1.2,1.4-9.6,2.6-25.4c0.6-8.1,0.9-15.6,0.9-22.5C533.2,56.5,530.8,41.3,526,32.3z"/>
	<path class="st0" d="M596.4,6.3c3.5-1.2,7.9-1.7,13.3-1.7c5.8,0,10,0.6,12.7,1.7c5,2.1,8.8,6,11.5,11.5c1.2,2.5,2.3,7.5,3.3,14.9
		c1.1,7.4,1.6,14,1.6,19.8c0,2.7-0.1,4.6-0.3,5.8c-0.6,4.8-1.9,10.2-3.9,16.2c-2,6-3.5,8.9-4.5,8.9c-1.5,0-2.3,1.3-2.3,3.8
		c0,1.9,0.7,4,2,6.3c3.1,4.4,7.4,12.6,13,24.5c5.6,11.9,8.7,19.4,9.2,22.5c0.2,1,0.3,2.3,0.3,4c0,2.5-0.7,4.7-2,6.6
		c-1.5,2.3-3.4,3.5-5.5,3.5c-1.9,0-3.7-0.1-5.2-0.3c-4.8-0.6-7.8-1.2-9.1-2c-1.3-0.8-1.9-2.3-1.9-4.6c0-3.8-2-9.7-5.9-17.6
		c-3.9-7.9-6.9-11.8-8.8-11.8h-0.3c-0.6,0.4-0.9,2.5-0.9,6.3c0,5.8,0.6,12.1,1.7,19c0.4,3.1,0.6,5.2,0.6,6.3
		c0,6.5-1.4,10.6-4.3,12.1c-1.2,0.6-2.8,0.9-4.9,0.9c-6.2,0-10-1.4-11.5-4.3c-1-1.5-1.7-14.5-2.3-38.9c-0.2-7.9-0.4-16.3-0.6-25.4
		c-0.2-9-0.3-15.6-0.3-19.8c0-4.1-0.2-9.5-0.7-16.2c-0.5-6.6-1.1-14-1.9-22.1c-0.8-9.2-1.2-14.6-1.2-16.2c0-4.6,0.6-7.8,1.9-9.7
		C590.5,8.7,592.9,7.3,596.4,6.3z M614.5,27.7c-0.6-1.5-1.6-2.3-3.2-2.3c-1.2,0-2.1,0.7-2.9,2c-0.8,1.3-0.8,2.5,0,3.5
		c0.2,0.2,0.7,6.4,1.6,18.6c0.9,12.2,1.5,18.5,1.9,18.9c0.4,0.4,1.3-0.4,2.9-2.3c1.2-1.7,1.7-5,1.7-9.8c0-3.7-0.1-6.8-0.3-9.5
		C615.9,36.1,615.3,29.8,614.5,27.7z"/>
	<path class="st0" d="M695.3,28.8c0-1.3,1-2.6,3-3.9c2-1.2,4.3-2.5,6.9-3.6c2.6-1.2,4.3-2.1,5-2.9c0.8-1.2,1.8-1.7,3.2-1.7
		c1.5,0,4.4,1.3,8.7,4c4.4,2.7,6.9,5.4,7.5,8.1c0.2,0.6,0.3,1.2,0.3,1.7c0,1.9-2.7,3.9-8.1,6.1c-5.8,2.5-9.4,5.2-11,8.1
		c-2.9,5.8-4.3,19.6-4.3,41.5c0,7.7,0.2,13.3,0.6,16.7c2.3,25.4,4.2,39.4,5.8,42.1l0.3,0.3c1.7,0,2.6-7.1,2.6-21.3
		c0.4-7.9,1-13.1,1.7-15.6c1-3.5,0.5-6.2-1.4-8.1c-2.3-2.7-3.5-5.2-3.5-7.5c0-1.7,0.8-3.6,2.3-5.5c2.1-2.3,6.5-3.5,13.3-3.5
		c4.4,0,7.4,0.2,8.9,0.7c1.5,0.5,3,1.5,4.3,3c1.7,2.3,2.6,5,2.6,8.1c0,3.1-0.4,6.8-1.2,11.2c-1.3,6.9-2.3,16.3-2.9,28.3
		c-1,13.8-2.5,22.8-4.6,26.8c-2.5,4.8-4.7,8-6.5,9.7c-1.8,1.6-5,3.1-9.4,4.5c-2.9,1-5.7,1.4-8.4,1.4c-3.5,0-7.1-1.5-11-4.6
		c-4.8-3.7-8.7-12.8-11.5-27.4c-0.6-3.1-1.3-5.3-2.3-6.6c-0.4-0.6-0.8-3.3-1.2-8.1c0-2.5-0.4-15.3-1.2-38.4l-1.2-31.4l4-13
		c2.7-8.5,4.8-13.7,6.3-15.6C694.6,31.2,695.3,30,695.3,28.8z"/>
</g>
</svg>
